<svg width="26" height="22" viewBox="0 0 26 22" fill="none" xmlns="http://www.w3.org/2000/svg">
<path d="M22.1688 16.3015H18.9861C18.7982 16.3016 18.6127 16.344 18.4436 16.4254C18.2744 16.5068 18.1259 16.6252 18.0092 16.7717L14.3223 21.3487C14.2042 21.4956 14.0544 21.6142 13.884 21.6957C13.7136 21.7772 13.5269 21.8195 13.3378 21.8195C13.1487 21.8195 12.9621 21.7772 12.7917 21.6957C12.6213 21.6142 12.4715 21.4956 12.3534 21.3487L8.66644 16.7717C8.54957 16.625 8.40089 16.5066 8.23151 16.4251C8.06212 16.3437 7.87642 16.3014 7.6883 16.3015H4.52195C2.42701 16.3015 0.740479 14.6237 0.740479 12.5396V3.76188C0.740479 1.6778 2.42701 0 4.52195 0H22.1688C24.265 0 25.9503 1.6778 25.9503 3.76188V12.5396C25.9503 14.6237 24.265 16.3015 22.1688 16.3015Z" fill="#C3C3C3"/>
</svg>
