<svg width="21" height="20" viewBox="0 0 21 20" fill="none" xmlns="http://www.w3.org/2000/svg">
<path d="M10.1641 8C10.6249 8 11.0812 7.90947 11.507 7.73358C11.9327 7.55769 12.3195 7.29988 12.6453 6.97487C12.9712 6.64987 13.2297 6.26403 13.406 5.83939C13.5823 5.41475 13.6731 4.95963 13.6731 4.5C13.6731 4.04037 13.5823 3.58525 13.406 3.16061C13.2297 2.73597 12.9712 2.35013 12.6453 2.02513C12.3195 1.70012 11.9327 1.44231 11.507 1.26642C11.0812 1.09053 10.6249 1 10.1641 1C9.23349 1 8.34097 1.36875 7.68291 2.02513C7.02485 2.6815 6.65515 3.57174 6.65515 4.5C6.65515 5.42826 7.02485 6.3185 7.68291 6.97487C8.34097 7.63125 9.23349 8 10.1641 8ZM1.14105 18.4V19H19.1872V18.4C19.1872 16.16 19.1872 15.04 18.7501 14.184C18.3656 13.4314 17.7521 12.8195 16.9976 12.436C16.1394 12 15.0165 12 12.7708 12H7.55746C5.31172 12 4.18885 12 3.33065 12.436C2.57611 12.8195 1.96264 13.4314 1.57817 14.184C1.14105 15.04 1.14105 16.16 1.14105 18.4Z" fill="#C3C3C3" stroke="#C3C3C3" stroke-width="2" stroke-linecap="round" stroke-linejoin="round"/>
</svg>
