<svg width="55" height="55" viewBox="0 0 55 55" fill="none" xmlns="http://www.w3.org/2000/svg">
<path d="M47.41 37.8309C47.0706 37.6402 46.7366 37.44 46.4086 37.2305C45.2376 36.4776 44.1169 35.6493 43.0536 34.7509C40.3586 32.489 36.9348 28.9415 33.9533 23.7807C30.9742 18.6175 29.6152 13.8807 29.0033 10.4134C28.7569 9.0424 28.5999 7.65683 28.5336 6.26546C28.5157 5.87767 28.5088 5.48946 28.5129 5.10129C28.5152 4.96379 28.5313 4.68421 28.5336 4.60858C24.1637 4.40446 19.8273 5.46171 16.0417 7.65421C12.253 9.83367 9.17061 13.0561 7.16147 16.9377L7.59459 17.1738C7.83904 17.3098 8.17286 17.5099 8.59605 17.7742C9.43709 18.3105 10.6036 19.1217 11.9511 20.2538C14.6461 22.518 18.0698 26.0632 21.049 31.2263C24.0304 36.3871 25.3894 41.1263 26.0036 44.5913C26.3083 46.3261 26.4275 47.7423 26.4711 48.7392C26.494 49.2365 26.494 49.6307 26.4917 49.9057V50.3984C30.8533 50.5969 35.1803 49.539 38.9583 47.3505C42.7445 45.1737 45.826 41.9555 47.8363 38.0784L47.41 37.8309Z" fill="#5621F8"/>
<path d="M23.0542 49.9835C23.0585 49.6183 23.0532 49.253 23.0381 48.8881C22.9819 47.6479 22.8418 46.4129 22.6188 45.1917C22.0665 42.0544 20.8244 37.7071 18.0767 32.9473C15.3267 28.1852 12.1825 24.9379 9.74189 22.8869C8.79673 22.0839 7.79834 21.3459 6.75355 20.6777C6.38918 20.4485 5.9973 20.2216 5.80939 20.1162C4.75354 23.2074 4.37208 26.4888 4.69069 29.7397C5.0093 32.9906 6.02058 36.1356 7.65647 38.9629C9.28702 41.7932 11.5049 44.2415 14.1609 46.1428C16.8169 48.0442 19.8493 49.3523 23.0542 49.9835ZM31.9527 5.02332C31.9485 5.38928 31.9531 5.75528 31.9665 6.12102C32.0054 6.9804 32.1108 8.2454 32.3881 9.81519C32.9404 12.9548 34.1825 17.2998 36.9302 22.0619C39.6802 26.8216 42.8244 30.0689 45.265 32.12C46.4842 33.1444 47.5269 33.8662 48.2533 34.3291C48.6177 34.5606 49.0096 34.7875 49.1975 34.8906C50.253 31.7998 50.6343 28.5188 50.3157 25.2683C49.9971 22.0178 48.986 18.8733 47.3504 16.0462C45.7199 13.2159 43.502 10.7677 40.846 8.8663C38.19 6.96494 35.1576 5.65454 31.9527 5.02332Z" fill="#5621F8"/>
</svg>
