<svg width="50" height="50" viewBox="0 0 50 50" fill="none" xmlns="http://www.w3.org/2000/svg">
<path fill-rule="evenodd" clip-rule="evenodd" d="M24.9356 35.2853L24.9141 35.2666L24.8804 35.2872L22.9417 36.5625L22.7775 36.6625C19.4683 38.6672 17.629 39.7827 16.1519 39.1951L16.1725 39.1862C15.9812 39.1102 15.8017 39.0047 15.628 38.8844C13.9585 37.641 14.7662 35.6107 16.3756 31.5649L17.4583 28.8432L16.7221 28.2095C11.3828 23.5977 8.73518 21.3005 9.63264 18.5733C10.5536 15.8298 14.0667 15.6085 21.0582 15.1675L21.1105 15.1644L33.9047 14.3581C39.6785 13.9796 42.5772 13.8036 43.9692 16.0443C45.3612 18.285 43.8722 20.7429 40.906 25.6292L36.1578 33.4532L36.1252 33.505C34.1989 36.6511 33.1584 38.3502 31.1781 38.6462C30.4903 38.7475 29.8727 38.6722 29.2254 38.4147L29.2166 38.3941C27.9955 37.9084 26.7221 36.8173 24.9356 35.2853ZM19.3619 30.4831L18.5824 32.4428C17.7748 34.473 16.9437 36.5621 17.1005 37.0676C17.5415 37.0726 19.6502 35.7984 21.6765 34.5597L23.0511 33.6615L19.3619 30.4831ZM21.2473 17.5192C15.8468 17.8588 12.2985 18.0831 11.8774 19.3129C11.4769 20.5338 14.1628 22.8632 18.2357 26.3749L18.7549 26.8217L34.0349 20.2376C34.6313 19.9807 35.3374 20.2616 35.5944 20.858C35.8513 21.4543 35.5704 22.1605 34.974 22.4174L20.7551 28.5444L26.358 33.3718C28.82 35.4929 29.9361 36.414 30.8061 36.283C31.6615 36.1461 32.4266 34.951 34.0797 32.2517L38.8338 24.413L38.8936 24.3141C41.108 20.6452 42.5527 18.2515 41.9339 17.2624C41.304 16.2502 38.6085 16.4167 34.1414 16.693L34.0473 16.6982L21.2532 17.5045L21.2473 17.5192Z" fill="#5621F8"/>
</svg>
