<svg width="9" height="9" viewBox="0 0 9 9" fill="none" xmlns="http://www.w3.org/2000/svg">
<path d="M4.32065 0C6.70695 0 8.6413 1.93436 8.6413 4.32065C8.6413 6.70695 6.70695 8.6413 4.32065 8.6413C1.93436 8.6413 0 6.70695 0 4.32065C0 1.93436 1.93436 0 4.32065 0ZM4.32065 1.72826C4.20606 1.72826 4.09616 1.77378 4.01514 1.85481C3.93411 1.93584 3.88859 2.04574 3.88859 2.16033V4.32065C3.88861 4.43523 3.93415 4.54511 4.01518 4.62612L5.31138 5.92232C5.39287 6.00102 5.50201 6.04457 5.61529 6.04359C5.72858 6.0426 5.83695 5.99716 5.91705 5.91705C5.99716 5.83695 6.0426 5.72858 6.04359 5.61529C6.04457 5.50201 6.00102 5.39287 5.92232 5.31138L4.75272 4.14178V2.16033C4.75272 2.04574 4.7072 1.93584 4.62617 1.85481C4.54514 1.77378 4.43524 1.72826 4.32065 1.72826Z" fill="#6B6B6B"/>
</svg>
