<svg width="38" height="38" viewBox="0 0 38 38" fill="none" xmlns="http://www.w3.org/2000/svg">
<path fill-rule="evenodd" clip-rule="evenodd" d="M31.8741 5.00335C30.9834 4.11286 29.7754 3.61261 28.5159 3.61261C27.2563 3.61261 26.0484 4.11286 25.1576 5.00335L24.0382 6.12435L31.8757 13.9618L32.9935 12.8424C33.4347 12.4013 33.7847 11.8777 34.0234 11.3013C34.2622 10.725 34.3851 10.1072 34.3851 9.48339C34.3851 8.85954 34.2622 8.2418 34.0234 7.66546C33.7847 7.08911 33.4347 6.56543 32.9935 6.12435L31.8741 5.00335ZM29.6353 16.2007L21.7978 8.36318L7.40529 22.7573C7.09034 23.0723 6.87032 23.4695 6.77037 23.9036L5.14112 30.9573C5.08042 31.2192 5.08738 31.4922 5.16136 31.7507C5.23533 32.0091 5.37389 32.2444 5.56397 32.4345C5.75405 32.6246 5.98939 32.7631 6.24782 32.8371C6.50625 32.9111 6.77926 32.9181 7.04112 32.8573L14.0965 31.2297C14.53 31.1295 14.9266 30.9095 15.2412 30.5948L29.6353 16.2007Z" fill="#5621F8"/>
</svg>
