<svg width="10" height="11" viewBox="0 0 10 11" fill="none" xmlns="http://www.w3.org/2000/svg">
<path fill-rule="evenodd" clip-rule="evenodd" d="M7.35631 10.9984C6.63509 10.9692 4.59113 10.6586 2.45051 8.30493C0.310396 5.95074 0.028419 3.7034 0.00137332 2.90967C-0.0386944 1.70007 0.80373 0.525175 1.77687 0.0663428C1.89406 0.0106919 2.02239 -0.0104961 2.14927 0.004858C2.27615 0.0202121 2.39722 0.0715806 2.5006 0.153923C3.30195 0.796177 3.85489 1.76782 4.32969 2.53181C4.43416 2.69966 4.47883 2.90391 4.45518 3.10565C4.43154 3.30738 4.34123 3.4925 4.20147 3.62573L3.22432 4.42387C3.17711 4.46136 3.14388 4.51642 3.1308 4.57883C3.11772 4.64123 3.12568 4.70673 3.1532 4.76317C3.37458 5.20548 3.76824 5.86426 4.219 6.35999C4.66976 6.85573 5.29733 7.31732 5.72755 7.58832C5.7815 7.62162 5.84499 7.63093 5.90498 7.61433C5.96497 7.59774 6.0169 7.5565 6.0501 7.49909L6.68617 6.43435C6.80311 6.26352 6.97563 6.14907 7.16758 6.11498C7.35953 6.08089 7.55602 6.12981 7.71591 6.25148C8.42061 6.78798 9.243 7.38562 9.84501 8.23333C9.92596 8.34785 9.97746 8.48417 9.99411 8.62807C10.0108 8.77196 9.99196 8.91813 9.93967 9.05129C9.52046 10.127 8.45967 11.0431 7.35631 10.9984Z" fill="#5621F8"/>
</svg>
