<svg width="12" height="13" viewBox="0 0 12 13" fill="none" xmlns="http://www.w3.org/2000/svg">
<path fill-rule="evenodd" clip-rule="evenodd" d="M6.29604 12.0251L6.28959 12.0262L6.24792 12.0456L6.23618 12.0479L6.22797 12.0456L6.1863 12.0262C6.18004 12.0244 6.17535 12.0253 6.17222 12.029L6.16987 12.0346L6.1599 12.2718L6.16283 12.2829L6.1687 12.2901L6.22973 12.3311L6.23853 12.3333L6.24557 12.3311L6.30661 12.2901L6.31365 12.2812L6.316 12.2718L6.30602 12.0351C6.30445 12.0292 6.30113 12.0259 6.29604 12.0251ZM6.45156 11.9625L6.44393 11.9636L6.33536 12.0152L6.32949 12.0207L6.32773 12.0268L6.3383 12.2652L6.34123 12.2718L6.34592 12.2757L6.46388 12.3272C6.47131 12.3291 6.47699 12.3276 6.4809 12.3228L6.48324 12.315L6.46329 11.9747C6.46134 11.968 6.45742 11.964 6.45156 11.9625ZM6.03196 11.9636C6.02938 11.9621 6.02629 11.9616 6.02333 11.9623C6.02038 11.9629 6.0178 11.9646 6.01612 11.9669L6.0126 11.9747L5.99265 12.315C5.99304 12.3217 5.99636 12.3261 6.00262 12.3283L6.01142 12.3272L6.12938 12.2757L6.13525 12.2712L6.1376 12.2652L6.14757 12.0268L6.14581 12.0201L6.13994 12.0146L6.03196 11.9636Z" fill="#2B2B2B"/>
<path fill-rule="evenodd" clip-rule="evenodd" d="M8.61938 11.4015C7.77433 11.3721 5.37943 11.0595 2.87127 8.69094C0.363691 6.32181 0.0332986 4.06022 0.00160912 3.26145C-0.0453382 2.04419 0.94173 0.861838 2.08196 0.400096C2.21927 0.344092 2.36963 0.322769 2.5183 0.338221C2.66696 0.353672 2.80882 0.405367 2.92995 0.488231C3.8689 1.13456 4.51677 2.11237 5.0731 2.8812C5.1955 3.05011 5.24784 3.25566 5.22014 3.45868C5.19243 3.66169 5.08662 3.84799 4.92287 3.98206L3.77794 4.78526C3.72262 4.82299 3.68369 4.8784 3.66836 4.9412C3.65303 5.004 3.66236 5.06992 3.69461 5.12671C3.95399 5.57183 4.41525 6.23478 4.94341 6.73366C5.47156 7.23255 6.20688 7.69706 6.71097 7.96978C6.77418 8.00329 6.84857 8.01266 6.91887 7.99596C6.98916 7.97926 7.05001 7.93776 7.0889 7.87998L7.83419 6.8085C7.97121 6.63658 8.17334 6.5214 8.39825 6.4871C8.62316 6.45279 8.85339 6.50202 9.04074 6.62447C9.86642 7.16437 10.83 7.76579 11.5354 8.61888C11.6303 8.73412 11.6906 8.87132 11.7101 9.01612C11.7296 9.16093 11.7076 9.30802 11.6463 9.44203C11.1551 10.5246 9.9122 11.4464 8.61938 11.4015Z" fill="#2B2B2B"/>
</svg>
