<svg width="9" height="12" viewBox="0 0 9 12" fill="none" xmlns="http://www.w3.org/2000/svg">
<path d="M4.5 0C2.01214 0 0 1.878 0 4.2C0 7.35 4.5 12 4.5 12C4.5 12 9 7.35 9 4.2C9 1.878 6.98786 0 4.5 0ZM4.5 5.7C4.07376 5.7 3.66498 5.54197 3.36358 5.26066C3.06218 4.97936 2.89286 4.59783 2.89286 4.2C2.89286 3.80218 3.06218 3.42064 3.36358 3.13934C3.66498 2.85804 4.07376 2.7 4.5 2.7C4.92624 2.7 5.33502 2.85804 5.63642 3.13934C5.93782 3.42064 6.10714 3.80218 6.10714 4.2C6.10714 4.59783 5.93782 4.97936 5.63642 5.26066C5.33502 5.54197 4.92624 5.7 4.5 5.7Z" fill="#2B2B2B"/>
</svg>
