<svg width="41" height="41" viewBox="0 0 41 41" fill="none" xmlns="http://www.w3.org/2000/svg">
<path d="M35.342 28.2012C35.089 28.059 34.84 27.9098 34.5954 27.7536C33.7226 27.1924 32.8871 26.5749 32.0944 25.9052C30.0854 24.219 27.5332 21.5745 25.3107 17.7274C23.0898 13.8785 22.0768 10.3474 21.6207 7.76266C21.4369 6.74067 21.3199 5.70779 21.2704 4.67058C21.2572 4.38151 21.252 4.09211 21.2551 3.80275C21.2568 3.70025 21.2687 3.49183 21.2704 3.43546C18.0129 3.2833 14.7803 4.07142 11.9583 5.70583C9.13406 7.33052 6.83625 9.73269 5.33853 12.6263L5.66141 12.8022C5.84363 12.9036 6.09248 13.0528 6.40795 13.2498C7.03491 13.6496 7.90445 14.2543 8.90895 15.0982C10.9179 16.7861 13.4702 19.4289 15.691 23.2777C17.9136 27.1249 18.9266 30.6577 19.3844 33.2407C19.6117 34.534 19.7005 35.5897 19.7329 36.3328C19.75 36.7035 19.75 36.9974 19.7483 37.2024V37.5697C22.9997 37.7177 26.2253 36.9291 29.0417 35.2976C31.8641 33.6749 34.1612 31.2759 35.6597 28.3857L35.342 28.2012Z" fill="#5621F8"/>
<path d="M17.1858 37.2605C17.1891 36.9882 17.1851 36.7159 17.1739 36.4439C17.132 35.5194 17.0276 34.5987 16.8613 33.6883C16.4496 31.3496 15.5236 28.1089 13.4753 24.5607C11.4253 21.0108 9.08151 18.5901 7.26214 17.0611C6.55757 16.4626 5.81331 15.9124 5.03447 15.4143C4.76285 15.2435 4.47072 15.0743 4.33064 14.9958C3.54355 17.3 3.25919 19.7462 3.4967 22.1696C3.73421 24.593 4.48807 26.9374 5.70756 29.0451C6.92305 31.155 8.5764 32.98 10.5563 34.3974C12.5362 35.8148 14.7968 36.7899 17.1858 37.2605ZM23.8193 3.74467C23.8162 4.01747 23.8196 4.29032 23.8296 4.56296C23.8586 5.20358 23.9372 6.14658 24.1439 7.31679C24.5556 9.65721 25.4815 12.8962 27.5298 16.4461C29.5798 19.9943 31.9236 22.415 33.743 23.944C34.6518 24.7076 35.4291 25.2458 35.9707 25.5908C36.2423 25.7634 36.5344 25.9325 36.6745 26.0094C37.4613 23.7053 37.7456 21.2595 37.5081 18.8364C37.2706 16.4133 36.5168 14.0692 35.2976 11.9618C34.0821 9.85187 32.4288 8.02682 30.4488 6.60944C28.4689 5.19206 26.2084 4.21522 23.8193 3.74467Z" fill="#5621F8"/>
</svg>
